<svg viewBox="0 0 10.583 10.583" xmlns="http://www.w3.org/2000/svg">
    <style xmlns="http://www.w3.org/2000/svg">
      .m {fill: #4d248f;}
      @media (prefers-color-scheme: dark) {
        .m {fill: #dac2ff;}
      }
    </style>
    <path class="m" d="M8.774 1.06a.538.538 0 0 0 .042-.18c0-.12-.084-.19-.253-.208a8.797 8.797 0 0 0-.842-.028V.436h2.598v.208c-.319 0-.571.028-.759.084a.546.546 0 0 0-.365.333l-3.44 9.155h-.421l-3.862-8.6c-.084-.176-.23-.264-.435-.264-.244 0-.501.134-.772.402 0-.24.056-.448.168-.624C.555.954.705.81.883.7 1.07.589 1.275.506 1.5.45c.225-.055.45-.083.674-.083.262 0 .492.037.688.111.197.065.365.157.506.277.15.12.276.255.379.403.103.148.187.3.253.458l2.485 5.59z" />
</svg>
