<svg xmlns="http://www.w3.org/2000/svg" xml:space="preserve" viewBox="0 0 500 500"><path d="M250.078 97.131a39.145 39.145 0 0 0-28.324 12.08 39.16 39.16 0 0 0-10.83 28.822l5.832 129.787a33.651 33.651 0 0 0 16.828 29.145 33.644 33.644 0 0 0 33.653 0 33.652 33.652 0 0 0 16.828-29.145l5.497-129.787h.004a39.162 39.162 0 0 0-10.945-28.944 39.157 39.157 0 0 0-28.542-11.957zm24.991 170.357a25.33 25.33 0 0 1-12.663 21.93 25.328 25.328 0 0 1-25.322 0 25.328 25.328 0 0 1-12.663-21.93L218.84 137.7v-.004a30.91 30.91 0 0 1 15.451-26.765 30.92 30.92 0 0 1 30.909 0 30.909 30.909 0 0 1 15.451 26.765zm-24.991 66.557a32.49 32.49 0 0 0-.223 64.977 32.483 32.483 0 0 0 23.004-9.409 32.481 32.481 0 0 0 .197-45.962 32.488 32.488 0 0 0-22.98-9.606zm0 56.565a24.148 24.148 0 0 1-17.145-7.058 24.143 24.143 0 0 1-7.095-17.13 24.139 24.139 0 0 1 7.136-17.111 24.144 24.144 0 0 1 17.16-7.018 24.166 24.166 0 0 1 24.02 24.408 24.086 24.086 0 0 1-7.11 16.918 24.086 24.086 0 0 1-16.966 6.992zm201.843-15.579a237.488 237.488 0 0 0-54.452-311.198A237.482 237.482 0 0 0 82.071 82.067a237.494 237.494 0 0 0-69.169 154.229 237.496 237.496 0 0 0 196.166 247.645 237.48 237.48 0 0 0 165.967-32.024l106.966 35.323a3.81 3.81 0 0 0 1.331 0 3.93 3.93 0 0 0 2.916-1.25 4.004 4.004 0 0 0 1-4.25zm-76.142 68.391h.005a4.174 4.174 0 0 0-3.585 0 229.153 229.153 0 0 1-160.354 32.116A229.172 229.172 0 0 1 87.935 87.52 229.17 229.17 0 0 1 393 70.503a229.172 229.172 0 0 1 82.954 140.927 229.171 229.171 0 0 1-32.116 160.354 4.174 4.174 0 0 0 0 3.585l33.322 100.964z"/></svg>