<svg xmlns="http://www.w3.org/2000/svg" xml:space="preserve" viewBox="0 0 500 500"><path d="M231.514 152.378a8.95 8.95 0 0 0-6.359 2.63c-3.505 3.506-3.505 9.218 0 12.724a8.953 8.953 0 0 0 6.359 2.635 8.934 8.934 0 0 0 6.365-2.635c3.505-3.505 3.505-9.217 0-12.723a8.948 8.948 0 0 0-6.365-2.631zm76.985 96.688 18.53 4.636-4.636-18.536zm-3.443-38.264a2.253 2.253 0 0 1-2.263-.656l-37.942-41.851a2.226 2.226 0 0 1-.557-1.86 2.238 2.238 0 0 1 1.1-1.6l37.19-21.468 10.044 10.044a2.249 2.249 0 1 0 3.18-3.181l-9.191-9.192 8.065-4.655 10.669 10.665a2.249 2.249 0 1 0 3.18-3.18l-9.817-9.815 25.02-14.44-15.027-13.902-104.216 23.873a2.25 2.25 0 0 1-2.015-.53L179.14 89.486a13.66 13.66 0 0 0-9.695-3.562c-7.015.248-12.697 5.778-13.137 12.786l-.017.291a13.63 13.63 0 0 0 3.662 10.202l39.837 42.488a2.25 2.25 0 0 1 .557 2.037l-23.87 104.217 13.896 15.004 13.992-24.228 9.656 9.659c.44.44 1.017.66 1.59.66a2.25 2.25 0 0 0 1.59-3.84l-10.513-10.515 4.658-8.064 9.036 9.035a2.241 2.241 0 0 0 3.177 0 2.25 2.25 0 0 0 0-3.18l-9.884-9.885 21.915-37.959a2.25 2.25 0 0 1 3.46-.54l41.85 37.942c.627.573.882 1.448.66 2.263l-7.25 26.365 5.368 10.851 62.597-62.597-10.855-5.361zm-64.003-39.893a13.416 13.416 0 0 1-9.545 3.953 13.418 13.418 0 0 1-9.543-3.953c-5.258-5.262-5.258-13.824 0-19.082 5.268-5.262 13.827-5.262 19.088 0 5.265 5.258 5.265 13.82 0 19.082zm8.943 264.845c66.319-73.598 170.205-164.384 170.205-253.914 0-93.373-76.355-169.342-170.205-169.342S79.792 88.471 79.792 181.85c0 89.378 103.43 179.885 170.204 253.913zM103.722 181.83c0-80.317 65.622-145.658 146.274-145.658s146.265 65.343 146.265 145.658c0 80.327-65.618 145.677-146.265 145.677-80.662 0-146.274-65.348-146.274-145.677zm191.082 242.214c-1.52 1.603-3.048 3.214-4.569 4.83 0 .004-.008.008-.008.01-9.94 10.534-21.344 22.79-30.847 33.751a12.411 12.411 0 0 1-14.542 3.158c-4.225-1.929-2.293-2.224-39.652-41.753-55.586 6.59-79.741 23.134-79.741 30.448 0 9.877 42.375 33.017 124.544 33.017 82.17 0 124.553-23.137 124.553-33.017 0-7.31-24.152-23.857-79.74-30.444z"/></svg>