<svg xmlns="http://www.w3.org/2000/svg" xml:space="preserve" viewBox="0 0 70 70"><path d="M63.903 8.583h-10.32V6.208a2 2 0 0 0-4 0v2.375h-5V6.208a2 2 0 0 0-4 0v2.375h-5V6.208a2 2 0 0 0-4 0v2.375h-5V6.208a2 2 0 0 0-4 0v2.375h-5V6.208a2 2 0 0 0-4 0v2.375h-5.68c-2.209 0-5.32 2.66-5.32 4.869v49c0 2.209 3.111 3.131 5.32 3.131h56c2.209 0 2.68-.922 2.68-3.131v-49c0-2.209-.471-4.869-2.68-4.869zm-50.32 4v2.625a2 2 0 0 0 4 0v-2.625h5v2.625a2 2 0 0 0 4 0v-2.625h5v2.625a2 2 0 0 0 4 0v-2.625h5v2.625a2 2 0 0 0 4 0v-2.625h5v2.625a2 2 0 0 0 4 0v-2.625h9v10h-56v-10h7zm-7 49v-37h56v37h-56z"/><path d="M30.423 41.918c2.453-1.484 5-2.997 5-6.253 0-2.947-2.178-4.836-5.338-4.836-3.23 0-5.502 2.215-5.502 5.516v.238h2.279c.047-2 .754-4.093 3.254-4.093 1.91 0 3.231 1.351 3.231 3.213 0 2.429-2.193 3.687-3.985 4.819-2.901 1.816-4.766 3.061-4.977 7.061h10.197v-2h-7.887c.451-2 2.195-2.745 3.728-3.665zm18.16-11.335h-11v2h9.168c-3.539 4-6.181 9-6.557 15h2.216c.685-7 3.173-11.025 6.173-14.704v-2.296zm10 18.625a1 1 0 0 0-1 1v7.375h-5.166a1 1 0 1 0 0 2h7c.553 0 .166.178.166-.375v-9a1 1 0 0 0-1-1zm-10.166 8.375h-2a1 1 0 1 0 0 2h2a1 1 0 1 0 0-2z"/></svg>