<svg xmlns="http://www.w3.org/2000/svg" xml:space="preserve" viewBox="0 0 72 72"><path d="m35.023 4.781-2.562 11.486c-8.263 1.483-14.804 7.938-16.291 16.29L4.789 35.022l-.008 1.953 11.49 2.563c.361 2.14 1.013 4.15 2.062 5.963l1.73-1.004c-1.031-1.783-1.688-3.749-1.972-5.928l-.09-.693-8.345-1.864 8.236-1.783.097-.691c1.138-8.061 7.486-14.311 15.451-15.45l.684-.097 1.879-8.416 1.865 8.289.653.12c2.113.383 4.225 1.058 6.013 2l.93-1.77c-1.815-.956-3.862-1.602-5.924-2.032L36.976 4.781h-1.954zm26.59 4.21L31.084 31.083 8.99 61.614l1.397 1.396 30.529-22.094 22.094-30.53-1.397-1.396zm-3.879 5.275-18.25 25.219-25.219 18.25 18.25-25.22 25.219-18.25zM36 22c-7.737 0-14 6.263-14 14 0 1.067.105 2.133.324 3.117l1.951-.433A12.64 12.64 0 0 1 24 36c0-6.663 5.337-12 12-12 1.04 0 1.93.093 2.812.357l.575-1.916c-1.118-.335-2.227-.44-3.387-.44zm17.666 4.498-1.73 1.004c1.032 1.783 1.688 3.748 1.972 5.928l.09.693 8.346 1.863-8.237 1.784-.097.69c-1.138 8.062-7.486 14.312-15.451 15.45l-.684.097-1.879 8.417-1.865-8.29-.652-.119c-2.114-.384-4.225-1.058-6.014-2l-.93 1.77c1.816.955 3.863 1.601 5.924 2.031l2.565 11.402h1.953l2.562-11.486c8.263-1.482 14.804-7.938 16.291-16.289l11.381-2.466.008-1.954-11.49-2.562c-.362-2.14-1.013-4.151-2.062-5.963zm-3.99 6.385-1.951.433c.18.816.275 1.75.275 2.684 0 6.663-5.337 12-12 12-.933 0-1.868-.094-2.805-.281l-.39 1.96c1.063.213 2.128.32 3.195.32 7.737 0 14-6.262 14-14a14.52 14.52 0 0 0-.324-3.116zM36 33c-1.645 0-3 1.355-3 3s1.355 3 3 3 3-1.355 3-3-1.355-3-3-3zm0 2c.564 0 1 .436 1 1s-.436 1-1 1-1-.436-1-1 .436-1 1-1z"/></svg>