<svg xmlns="http://www.w3.org/2000/svg" xml:space="preserve" viewBox="0 0 512 512"><path d="M336.53 64.002c-4.204 7.342-6.651 14.944-8.067 21.604-3.655 17.198 3.353 35.099 17.842 45.058 7.506 5.159 16.122 9.426 23.99 12.752 12.822 5.421 27.5-1.621 31.434-14.974l9.393-31.891c6.191-21.026-5.245-43.205-25.966-50.352-18.379-6.339-38.966.933-48.626 17.803zm80 379.22-61.046-148.163 17.32-95.263c1.473-8.095.361-16.478-3.369-23.811-6.434-12.648-20.309-29.393-48.925-30.731 0 0-2.868-.424-7.003.239-8.209 1.316-15.371 6.309-19.826 13.327l-67.955 107.028c-3.028 4.77-3.115 10.582-.717 15.297l-27.724 39.558-45.885-32.285c-10.291-7.24-24.502-4.768-31.743 5.523l-43.22 61.43c-14.444 20.529-9.51 48.88 11.019 63.324l10.781 7.585c-1.165 3.278-1.831 6.791-1.831 10.468 0 17.298 14.022 31.32 31.32 31.32 17.298 0 31.32-14.022 31.32-31.32 0-7.082-2.379-13.594-6.343-18.84l90.371-128.943a15.383 15.383 0 0 0 8.289-5.875l55.534-78.048-15.078 66.221a35.386 35.386 0 0 0 3.936 25.69l96.773 165.939a10.432 10.432 0 0 0 9.011 5.176h32.429c3.926 0 6.481-4.098 4.778-7.635-3.025-6.281-9.36-14.564-22.216-17.211zm-272.967-6.474c0 8.746-7.09 15.837-15.836 15.837s-15.836-7.091-15.836-15.837c0-.28.027-.555.042-.832.424-8.124 6.955-14.613 15.096-14.969.233-.01.462-.035.698-.035 5.11 0 9.642 2.431 12.537 6.188a15.774 15.774 0 0 1 2.57 4.892c.472 1.501.729 3.098.729 4.756z"/><path d="M298.915 327.521c-2.547-3.994-8.654-2.992-9.751 1.616-9.493 39.877-37.082 79.887-52.97 97.255-4.702 5.14-5.115 12.887-1.081 18.565l13.533 19.046a9.656 9.656 0 0 0 7.874 4.064h11.514c2.257 0 3.974-1.969 3.743-4.214-1.196-11.712-6.867-21.455-6.867-21.455 29.209-30.583 44.936-60.499 51.607-75.314a14.194 14.194 0 0 0-.965-13.474l-16.637-26.089zm86.513-97.999c-2.087-2.064-5.633-.979-6.207 1.9l-5.199 26.108a5.775 5.775 0 0 0 1.827 5.442l45.262 40.236c5.935 5.276 15.103 4.396 19.926-1.911a13.661 13.661 0 0 0-1.245-18.009l-54.364-53.766z"/></svg>