<svg xmlns="http://www.w3.org/2000/svg" xml:space="preserve" viewBox="0 0 54 54"><path d="M30.74 19.53c.33 0 .638-.09.917-.265 1.022-.644 1.435-1.73 1.8-2.69.275-.724.535-1.409 1.009-1.853.457-.428.61-.987.409-1.495-.245-.62-.932-.975-1.884-.975-1.652 0-3.793 1.016-5.876 2.788a.871.871 0 0 0-.188 1.101c.462.795 2.103 3.389 3.813 3.389zm2.047-5.526c-.451.615-.717 1.316-.96 1.952-.304.802-.568 1.496-1.094 1.832-.363-.011-1.2-.864-1.904-1.896 1.981-1.537 3.363-1.838 3.958-1.888zM12.915 29.013A18.602 18.602 0 0 0 23.55 38.62a18.68 18.68 0 0 0 6.28 1.09c7.898 0 14.984-5 17.638-12.442.003-.003.003-.006.004-.01a18.603 18.603 0 0 0-.726-14.311A18.603 18.603 0 0 0 36.11 3.34a18.673 18.673 0 0 0-6.28-1.09c-7.9 0-14.99 5.003-17.641 12.449a18.602 18.602 0 0 0 .725 14.313zm1.574-.748a17.188 17.188 0 0 1-1.005-2.666.867.867 0 0 0 .066-.072c1.191-1.463 4.841-5.152 7.375-4.672 1.126.213 2.085.019 2.85-.579 1.64-1.28 1.797-3.985 1.89-5.602l.025-.402c.053-.769-.164-1.709-.374-2.618-.162-.704-.501-2.17-.28-2.442 0 0 .008-.006.032-.013.868-.258 2.062-1.243 3.547-2.93.955-1.086 1.484-1.792 1.773-2.266a16.91 16.91 0 0 1 3.507.487c-1.337 1.093-3 2.808-2.754 4.442.163 1.088 1.055 1.87 2.651 2.323 5.339 1.516 6.112 2.365 6.866 5.059.587 2.096 2.503 3.773 4.225 3.773a2.492 2.492 0 0 0 1.85-.83 16.87 16.87 0 0 1-.582 6.415c-.8-.382-1.982-.769-3.242-.559-1.796.3-2.713-2.764-3.167-5.387-.51-2.944-2.18-3.017-2.875-2.912-1.744.265-3.548 2.584-3.328 4.279.207 1.586-1.029 4.28-2.147 5.292-.157.142-.873-.164-1.346-.366-1.122-.48-3-1.282-4.352.481-1.332 1.736-4.962 6.204-6.321 7.873a16.912 16.912 0 0 1-4.884-6.108zm15.34 9.703a16.94 16.94 0 0 1-5.695-.989 17.122 17.122 0 0 1-3.329-1.606c1.422-1.746 4.952-6.094 6.271-7.812.46-.6.926-.521 2.286.06.986.421 2.215.946 3.2.055 1.516-1.372 2.996-4.575 2.706-6.808-.09-.692 1.007-2.202 1.86-2.331.565-.085.815 1.01.898 1.486.418 2.417 1.02 4.143 1.84 5.277 1.111 1.54 2.425 1.683 3.33 1.532.915-.153 1.826.208 2.384.5-2.578 6.39-8.82 10.637-15.75 10.636zm15.342-24.273c.345.727.635 1.47.872 2.224-.051 1.44-.443 2.341-1.059 2.42-.846.106-2.236-1.023-2.648-2.495-.994-3.55-2.427-4.663-8.068-6.265-.842-.24-1.353-.57-1.404-.905-.129-.856 1.603-2.513 3.071-3.541a16.865 16.865 0 0 1 9.236 8.562zm-31.34 1.59c2.218-6.232 7.863-10.573 14.35-11.209-1.052 1.32-2.783 3.208-3.607 3.452-1.87.554-1.341 2.845-.955 4.518.181.785.368 1.596.333 2.106-.009.128-.017.269-.026.421-.071 1.236-.204 3.535-1.222 4.33-.358.28-.834.358-1.454.24-1.765-.334-3.843.48-6.179 2.418a23.135 23.135 0 0 0-2.045 1.933 16.9 16.9 0 0 1 .805-8.21zm32.016 21.713a22.503 22.503 0 0 1-16.017 6.635 22.502 22.502 0 0 1-16.017-6.635 22.504 22.504 0 0 1-6.635-16.017c0-6.05 2.356-11.739 6.635-16.017a.871.871 0 1 0-1.232-1.232 24.234 24.234 0 0 0-7.145 17.25 24.234 24.234 0 0 0 7.145 17.25c4.541 4.54 10.443 6.912 16.406 7.116v4.661h-8.712a.871.871 0 1 0 0 1.742H39.44a.871.871 0 1 0 0-1.742h-8.71v-4.663c5.943-.217 11.822-2.588 16.35-7.115a.872.872 0 0 0-1.233-1.232z"/></svg>