<svg xmlns="http://www.w3.org/2000/svg" viewBox="0 0 1024 1024"><path d="m927.78 325.453-10.234-5.111-125.72-88.898-8.327-5.503-74.29 22.141c-24.869-78.309-96.787-136.872-178.912-143.997-58.877-5.163-115.126 13.943-158.42 53.641-42.698 39.152-67.184 94.813-67.184 152.71 0 18.682 2.606 37.258 7.719 55.444l-46.799 13.904-138.004-78.767-12.708-5.534-19.014 12.594v504.189l.051 12.346 155.288 88.558 8.317 5.503 516.71-153.494 128.617 90.96 22.951-11.883V338.584l-.042-13.13zM400.402 188.83c34.473-31.597 79.323-46.757 126.246-42.697 68.41 5.947 128.018 56.723 144.97 123.504 1.375 5.41 2.058 10.811 2.888 16.212.63 4.107 1.269 8.214 1.587 12.31.293 3.795.268 7.575.29 11.36.03 3.915.155 7.835-.1 11.731-.306 4.515-1.042 9.003-1.732 13.494-.473 3.11-.729 6.24-1.386 9.333-1.636 7.635-3.746 15.235-6.503 22.774L536.574 592.809l-5.125 8.904c-5.884 10.22-15.663 11.332-19.6 11.332-3.926 0-13.706-1.113-19.59-11.336L358.765 369.873l-2.093-4.132c-6.457-18.04-9.767-36.63-9.767-55.303 0-46.097 19.498-90.422 53.497-121.608zm485.206 601.98-84.425-59.691V536.68c0-11.656-9.45-21.107-21.106-21.107s-21.107 9.45-21.107 21.107v189.605L265.613 872.844 138.1 800.126V355.597l112.415 64.109V601.04c0 11.656 9.45 21.107 21.106 21.107s21.107-9.451 21.107-21.107V415.72l37.328-11.129 124.176 215.677 1.441 2.506.013.019 36.583 63.537c4.03 6.966 11.532 11.306 19.59 11.306 0 0 11.572 1.651 19.717-11.548 9.585-15.533 36.43-63.273 36.43-63.273.009-.015.021-.024.03-.04l136.098-236.393 1.463-3.093c.02-.055.032-.113.054-.169 2.453-6.53 4.442-13.162 6.218-19.83a209.118 209.118 0 0 0 1.561-6.207c1.369-5.867 2.531-11.765 3.38-17.702.3-2.097.515-4.2.75-6.303a205.135 205.135 0 0 0 1.152-16.218c.066-2.195.123-4.39.118-6.591-.001-6.907-.265-13.816-.965-20.716-.003-.026 0-.051-.004-.078l58.393-17.355 109.354 77.334V790.81z"/><path d="M417.754 316.986a94.098 94.098 0 1 0 188.197 0 94.098 94.098 0 1 0-188.197 0Z"/></svg>