<svg xmlns="http://www.w3.org/2000/svg" xml:space="preserve" viewBox="0 0 64 64"><path d="M33.93 1.65a.644.644 0 0 0-.643.643v2.423L30.959 9.37h-.89a.644.644 0 0 0-.643.643v2.574c0 .355.288.644.643.644h.575a267.364 267.364 0 0 1-.482 4.217 197 197 0 0 1-.701 5.224.642.642 0 0 0-.036.237c-.345 2.28-.731 4.414-1.118 5.765h-.812a.644.644 0 0 0 0 1.287h.477c-.198.816-.43 1.678-.696 2.574h-1.068a.644.644 0 0 0 0 1.287h.826a278.685 278.685 0 0 1-.908 4.245.64.64 0 0 0-.054.245 351.82 351.82 0 0 1-1.656 7.093h-2.069a.644.644 0 0 0 0 1.287h.644v3.052L20.288 54.7a.638.638 0 0 0-.07.13l-2.757 5.055-.005.008-.704 1.292a.643.643 0 1 0 1.128.615l.365-.668 1.292.89a.647.647 0 0 0 .894-.163.643.643 0 0 0-.163-.894l-1.016-.7 3.79-2.052 1.738 1.74-2.434.94a.643.643 0 0 0 .232 1.243.698.698 0 0 0 .231-.041l1.687-.652a.643.643 0 0 0 1.204.306c.22-.387.457-.759.707-1.115a.638.638 0 0 0 .093-.131c1.265-1.762 2.88-3.14 4.733-4.03 1.064-.512 1.972-.772 2.697-.772.588 0 1.302.173 2.122.514 2.49 1.032 4.664 3.007 6.121 5.558a.645.645 0 0 0 1.203-.328l1.675.647a.645.645 0 0 0 .463-1.202l-2.434-.94 1.736-1.74 3.792 2.053-.887.612a.644.644 0 1 0 .731 1.058l1.163-.802.482.884a.637.637 0 0 0 .871.257.642.642 0 0 0 .256-.872l-.803-1.473a.66.66 0 0 0-.042-.077l-2.73-5.006a.637.637 0 0 0-.09-.165l-2.69-4.93v-3.057h.644a.644.644 0 0 0 0-1.286h-2.07c-.26-1.061-.92-3.784-1.655-7.087a.64.64 0 0 0-.057-.258 280.64 280.64 0 0 1-.906-4.238h.827a.644.644 0 0 0 0-1.287h-1.068a53.362 53.362 0 0 1-.696-2.574h.477a.644.644 0 0 0 0-1.287h-.81c-.388-1.357-.775-3.503-1.122-5.795a.643.643 0 0 0-.027-.18c-.565-3.769-1.017-7.865-1.187-9.468h.572a.644.644 0 0 0 .644-.644v-2.574a.644.644 0 0 0-.644-.643h-.889l-2.328-4.658v-2.42a.644.644 0 0 0-.644-.644zm0 4.655 1.534 3.066h-3.067zm21.878.492a.644.644 0 0 0 0 1.287h5.148a.644.644 0 0 0 0-1.287zm-25.096 3.86h6.435v1.288h-.603a.653.653 0 0 0-.04-.001h-5.792zm1.224 2.575h1.35v1.038l-1.41-.47.06-.568zm2.637 0h1.35l.06.568-1.41.47zm-2.84 1.877 1.553.517v.36l-1.72.572c.062-.523.117-1.006.166-1.45zm4.393 0c.05.444.105.927.167 1.45l-1.72-.573v-.36zm-2.84 2.233v2.075l-1.988-.663.098-.783zm1.287 0 1.89.629c.031.257.064.518.098.784l-1.988.662zm-3.443 2.712 2.156.72v.36l-2.416.805c.09-.63.177-1.263.26-1.885zm5.6 0c.082.623.169 1.255.26 1.885l-2.417-.805v-.36zm-22.105.9a4.51 4.51 0 0 0-4.27 3.072 2.576 2.576 0 0 0-4.095 2.076H3.043a.644.644 0 0 0 0 1.286h3.86a.644.644 0 0 0 .644-.643V26.1a1.288 1.288 0 0 1 2.574 0v.644a.644.644 0 0 0 1.287 0v-1.287a3.221 3.221 0 0 1 3.217-3.218 3.221 3.221 0 0 1 3.218 3.218v1.287c0 .355.288.643.643.643h3.861a.644.644 0 0 0 0-1.287H19.13v-.643a4.51 4.51 0 0 0-4.505-4.505zm18.661 1.536v2.075l-2.676-.892.048-.307zm1.287 0 2.629.876.047.307-2.676.892zM30.4 24.96l2.886.961v.426l-3.503 1.75c.212-.898.42-1.975.617-3.138zm7.059 0c.198 1.162.405 2.239.617 3.137l-3.503-1.751v-.424zm-4.173 2.826v.89h-1.778zm1.287 0 1.779.89h-1.779zm-5.278 2.176h1.417v.644a.644.644 0 0 0 1.287 0v-.644h1.287v.644a.644.644 0 0 0 1.287 0v-.644h1.287v.644a.644.644 0 0 0 1.287 0v-.644h1.418c.192.816.419 1.677.679 2.574H28.616c.26-.897.486-1.758.68-2.574zm23.592 2.574a3.225 3.225 0 0 0-2.786 1.608.644.644 0 0 0 1.115.644 1.938 1.938 0 0 1 1.673-.965c.839 0 1.554.538 1.82 1.287h-.533a.644.644 0 0 0 0 1.287h2.574a.643.643 0 1 0 0-1.287h-.535a1.934 1.934 0 0 1 1.82-1.287c.687 0 1.328.37 1.673.965a.644.644 0 0 0 1.115-.644 3.214 3.214 0 0 0-5.36-.318 3.215 3.215 0 0 0-2.576-1.29zm-23.846 1.287h2.816l-.593 2.965zm4.13 0h1.518l.921 4.606.002.009a.634.634 0 0 0 .003.02l.002.005c0 .005.002.01.003.014l1.386 6.929h-6.152l1.387-6.936a.683.683 0 0 0 .007-.032zm2.83 0h2.819l-2.225 2.968zm-7.85.96 2.177 2.901H27.53c.206-.94.415-1.914.621-2.901zm11.557.002c.206.987.415 1.96.621 2.899h-2.795zM27.244 38.97h2.96l-4.034 4.654c.296-1.245.672-2.856 1.074-4.654zm10.41 0h2.96a359.36 359.36 0 0 0 1.073 4.652zm-.3 1.62 4.174 4.815h-3.21zm-6.85 0-.963 4.815h-3.21zm-6.227 6.102h1.287v.643a.644.644 0 0 0 1.287 0v-.643h1.287v.643a.644.644 0 0 0 1.287 0v-.643h1.287v.643a.644.644 0 0 0 1.287 0v-.643h1.287v.643a.644.644 0 0 0 1.287 0v-.643h1.287v.643a.644.644 0 0 0 1.287 0v-.643h1.287v.643a.644.644 0 0 0 1.287 0v-.643h1.287v.643a.644.644 0 0 0 1.287 0v-.643h1.287v2.574H24.278zm-.261 3.86h.26v1.931a.644.644 0 0 0 1.288 0v-1.93h1.287v1.93a.644.644 0 0 0 1.287 0v-1.93h1.287v1.93a.644.644 0 0 0 1.287 0v-1.93h1.287v1.93a.644.644 0 0 0 1.287 0v-1.93h1.287v1.93a.644.644 0 0 0 1.287 0v-1.93h1.287v1.93a.644.644 0 0 0 1.287 0v-1.93h1.287v1.93a.644.644 0 0 0 1.287 0v-1.93h1.287v1.93a.644.644 0 0 0 1.287 0v-1.93h.26l2.107 3.86H21.91zM22.353 55.7h2.624l-1.704.923zm5.328 0h2.247a13.813 13.813 0 0 0-4.071 3.512l-1.635-1.639zm10.245 0h2.254l3.456 1.872-1.641 1.645c-1.149-1.448-2.534-2.647-4.07-3.517zm4.958 0h2.62l-.92.921zm4.004.433 1.343 2.461-2.467-1.335zm-25.917.002 1.123 1.126-2.466 1.335z"/></svg>