<svg xmlns="http://www.w3.org/2000/svg" viewBox="-3.02 0 48.891 48.891"><path d="M21.426 1.025a.672.672 0 0 0-.672.672v5.688a.672.672 0 0 0 .672.672.672.672 0 0 0 .674-.672V1.697a.672.672 0 0 0-.674-.672zm-11.199 3.07a.672.672 0 0 0-.51.07.672.672 0 0 0-.246.917l2.842 4.924a.672.672 0 0 0 .92.246.672.672 0 0 0 .246-.918L10.635 4.41a.672.672 0 0 0-.408-.314zm22.91.07a.672.672 0 0 0-.918.245l-2.844 4.924a.672.672 0 0 0 .246.918.672.672 0 0 0 .918-.246l2.844-4.924a.672.672 0 0 0-.246-.918zM1.551 12.421a.672.672 0 0 0-.408.314.672.672 0 0 0 .246.918l4.926 2.844a.672.672 0 0 0 .918-.246.672.672 0 0 0-.246-.92L2.06 12.49a.672.672 0 0 0-.51-.068zm39.24.068-4.926 2.842a.672.672 0 0 0-.246.92.672.672 0 0 0 .918.246l4.926-2.844a.672.672 0 0 0 .246-.918.672.672 0 0 0-.918-.246zm-28.842 1.805a.672.672 0 0 0-.525.252L3.84 24.025a.672.672 0 0 0-.002.07.672.672 0 0 0-.145.35.672.672 0 0 0 .137.328.672.672 0 0 0-.002.077l5.685 7.582a.672.672 0 0 0 .942.134.672.672 0 0 0 .135-.941l-4.88-6.506h5.747l7.26 17.34-5.284-7.043a.672.672 0 0 0-.941-.133.672.672 0 0 0-.135.942l8.531 11.373a.672.672 0 0 0 .538.267.672.672 0 0 0 .539-.267l8.53-11.373a.672.672 0 0 0-.134-.942.672.672 0 0 0-.941.133l-5.284 7.043 7.26-17.34h5.746l-4.879 6.506a.672.672 0 0 0 .135.941.672.672 0 0 0 .94-.134l5.687-7.582a.672.672 0 0 0 .133-.399.672.672 0 0 0 .002-.006.672.672 0 0 0 0-.004.672.672 0 0 0-.047-.234.672.672 0 0 0-.043-.074.672.672 0 0 0-.059-.108l-7.582-9.478a.672.672 0 0 0-.525-.252H16.34zm.322 1.344h3.012l-3.809 8.135h-5.71zm4.496 0h2.25l-1.502 8.135h-4.554zm3.618 0h2.084l1.502 8.135h-5.088zm3.45 0h2.25l3.807 8.135h-4.554zm3.733 0h3.014l6.506 8.135h-5.711zm-14.654 9.48h4.58l2.489 16.883zm5.94 0H24l-2.574 17.463zm6.506 0h4.58l-7.07 16.884z"/></svg>