<svg xmlns="http://www.w3.org/2000/svg" viewBox="0 0 24 24"><path fill-rule="evenodd" d="M10.623 10.644a.367.366 0 0 0 0 .519l2.203 2.2a.366.366 0 0 0 .52 0 .367.366 0 0 0 0-.518l-2.204-2.201a.367.366 0 0 0-.519 0zm-.95 1.467a.367.367 0 1 0-.519.519l2.203 2.2a.366.366 0 0 0 .52 0 .367.366 0 0 0 0-.518zm-1.468 1.467a.367.367 0 1 0-.52.519l2.204 2.2a.366.366 0 0 0 .519 0 .367.366 0 0 0 0-.518zm6.933-.84L11.25 8.853l-5.356 5.35 3.887 3.883 5.356-5.35zM11.51 8.076l4.406 4.4a.367.366 0 0 1 0 .52l-5.875 5.868a.366.366 0 0 1-.52 0l-4.406-4.401a.367.366 0 0 1 0-.519l5.876-5.868a.367.366 0 0 1 .519 0zm8.544 6.338a.366.366 0 0 0-.503.131l-4.209 7.17a1.101 1.101 0 0 1-1.489.414l-.82-.531a.367.367 0 1 0-.399.615l.836.541a1.826 1.824 0 0 0 .915.245 1.835 1.833 0 0 0 1.592-.914l4.208-7.169a.367.367 0 0 0-.131-.502zM23 2.835v5.868c0 1.134-.36 1.98-1.209 2.826L10.886 22.437a1.824 1.822 0 0 1-1.299.537 1.82 1.819 0 0 1-1.297-.537l-6.751-6.743A1.825 1.823 0 0 1 1 14.397c0-.49.19-.95.538-1.296l9.538-9.515c-2.495-.565-4.042-.603-4.495-.471.191.196.787.61 2.226 1.177a.367.367 0 0 1-.27.682C5.561 3.802 5.735 3.152 5.8 2.907c.137-.51.864-.68 2.354-.549 1.214.106 2.78.405 4.411.841 1.63.436 3.136.96 4.24 1.474 1.357.632 1.9 1.142 1.764 1.652-.132.492-.819.552-1.045.572a.367.367 0 0 1-.064-.73 1.77 1.77 0 0 0 .328-.054c-.158-.164-.555-.42-1.191-.724a1.466 1.464 0 0 0-.206.746 1.47 1.47 0 0 0 2.938 0 1.47 1.47 0 0 0-1.47-1.467.367.367 0 1 1 0-.734c1.216 0 2.204.987 2.204 2.201a2.204 2.204 0 0 1-4.406 0 2.2 2.2 0 0 1 .27-1.046c-.88-.369-2.058-.781-3.551-1.181a38.02 38.02 0 0 0-.462-.12L2.058 13.62a1.093 1.092 0 0 0-.323.777c0 .294.115.57.323.778L8.81 21.92a1.129 1.129 0 0 0 1.558 0l10.904-10.91c.716-.715.994-1.362.994-2.308V2.834c0-.606-.494-1.1-1.102-1.1H15.29c-.947 0-1.595.278-2.31.993a.367.367 0 1 1-.52-.519C13.307 1.361 14.153 1 15.29 1h5.875C22.177 1 23 1.823 23 2.834z"/></svg>