<svg xmlns="http://www.w3.org/2000/svg" xml:space="preserve" viewBox="0 0 32 32"><path d="M13.945 9.004a.5.5 0 0 0-.441.55l.5 4.5a.5.5 0 0 0 .496.446h9a.5.5 0 0 0 .5-.5.5.5 0 0 0-.5-.5h-8.553l-.451-4.055a.5.5 0 0 0-.551-.441zM1.5 16.5a.5.5 0 0 0-.5.5.5.5 0 0 0 .5.5h1.918a.5.5 0 0 0 .5-.5.5.5 0 0 0-.5-.5zm24.5 0a.5.5 0 0 0-.486.62l.12.49a2.497 2.497 0 0 0 2.425 1.89h.591a.5.5 0 0 0 .5-.5.5.5 0 0 0-.5-.5h-.591c-.64 0-1.156-.417-1.37-1h2.41a.5.5 0 0 0 .5-.5.5.5 0 0 0-.5-.5zm2.5 4a.5.5 0 0 0-.5.5.5.5 0 0 0 .5.5h1.918a.5.5 0 0 0 .5-.5.5.5 0 0 0-.5-.5zm-21-1C5.57 19.5 4 21.07 4 23s1.57 3.5 3.5 3.5S11 24.93 11 23s-1.57-3.5-3.5-3.5zm16 0c-1.93 0-3.5 1.57-3.5 3.5s1.57 3.5 3.5 3.5S27 24.93 27 23s-1.57-3.5-3.5-3.5zm-16 1c1.39 0 2.5 1.11 2.5 2.5s-1.11 2.5-2.5 2.5S5 24.39 5 23s1.11-2.5 2.5-2.5zm16 0c1.39 0 2.5 1.11 2.5 2.5s-1.11 2.5-2.5 2.5S21 24.39 21 23s1.11-2.5 2.5-2.5zm-16 1c-.823 0-1.5.677-1.5 1.5s.677 1.5 1.5 1.5S9 23.823 9 23s-.677-1.5-1.5-1.5zm16 0c-.823 0-1.5.677-1.5 1.5s.677 1.5 1.5 1.5S25 23.823 25 23s-.677-1.5-1.5-1.5zm-16 1c.282 0 .5.218.5.5s-.218.5-.5.5-.5-.218-.5-.5.218-.5.5-.5zm16 0c.282 0 .5.218.5.5s-.218.5-.5.5-.5-.218-.5-.5.218-.5.5-.5zm-12.25-15a7.528 7.528 0 0 0-4.307 1.36.5.5 0 0 0-.123.697.5.5 0 0 0 .696.123A6.53 6.53 0 0 1 11.25 8.5h2.631c3.414 0 6.65 1.517 8.834 4.14l.457.547.002.002.002.002c.1.123.238.197.348.309H14.5a.5.5 0 0 0-.5.5.5.5 0 0 0 .5.5h10.33a.5.5 0 0 0 .281-.914 5.492 5.492 0 0 1-1.166-1.033.5.5 0 0 0-.002-.004l-.46-.549a12.491 12.491 0 0 0-9.602-4.5zm-3.545 3.031a.5.5 0 0 0-.293.645l.149.396v.002l.002.002A4.48 4.48 0 0 0 11.77 14.5h.728a.5.5 0 0 0 .5-.5.5.5 0 0 0-.5-.5h-.728a.5.5 0 0 0-.002 0A3.471 3.471 0 0 1 8.5 11.227a.5.5 0 0 0-.002-.002l-.15-.4a.5.5 0 0 0-.643-.294zM11.25 7.5a7.51 7.51 0 0 0-6.244 3.342l-.371.549a.5.5 0 0 0-.004.006 4.26 4.26 0 0 1-1.235 1.234.5.5 0 0 0-.005.004l-1.276.857A2.49 2.49 0 0 0 1 15.57V21c0 1.137.768 2.105 1.816 2.404a.5.5 0 0 0 .62-.343.5.5 0 0 0-.344-.618A1.508 1.508 0 0 1 2 21v-5.43c0-.506.245-.964.666-1.242a.5.5 0 0 0 .002-.004l1.275-.855.006-.004a5.265 5.265 0 0 0 1.516-1.516l.004-.006.365-.545a.5.5 0 0 0 .002-.002A6.507 6.507 0 0 1 11.25 8.5h2.631c3.414 0 6.65 1.517 8.834 4.14l.46.551a6.642 6.642 0 0 0 2.49 1.84l.33.139a.5.5 0 0 0 .003.002 6.484 6.484 0 0 1 3.998 5.885A1.498 1.498 0 0 1 28.5 22.5h-2a.5.5 0 0 0-.5.5.5.5 0 0 0 .5.5h2a2.512 2.512 0 0 0 2.5-2.412.5.5 0 0 0 0-.026 7.493 7.493 0 0 0-4.615-6.812l-.33-.14a5.636 5.636 0 0 1-2.112-1.561l-.46-.549a12.491 12.491 0 0 0-9.602-4.5zm-.75 15a.5.5 0 0 0-.5.5.5.5 0 0 0 .5.5H19a.5.5 0 0 0 .5-.5.5.5 0 0 0-.5-.5zm-9 3a.5.5 0 0 0-.5.5.5.5 0 0 0 .5.5h.1a.5.5 0 0 0 .5-.5.5.5 0 0 0-.5-.5zm2 0a.5.5 0 0 0-.5.5.5.5 0 0 0 .5.5H23a.5.5 0 0 0 .5-.5.5.5 0 0 0-.5-.5zm9 2a.5.5 0 0 0-.5.5.5.5 0 0 0 .5.5h18a.5.5 0 0 0 .5-.5.5.5 0 0 0-.5-.5z"/></svg>