<svg xmlns="http://www.w3.org/2000/svg" viewBox="0 0 700 700"><path d="m112.309 208.922 48.505 372.22-97.433-14.876a32.508 32.508 0 0 1-27.11-36.754l68.232-447.11a32.42 32.42 0 0 1 12.866-21.089 32.445 32.445 0 0 1 23.989-5.91l167.67 25.566-7.725 48.083-141.65 18.466v-.005a55.068 55.068 0 0 0-36.313 20.953 55.083 55.083 0 0 0-11.042 40.45zm523.74 420.42h-.075l-406.76 52.913h-.005a32.455 32.455 0 0 1-23.803-6.504 32.417 32.417 0 0 1-12.344-21.37l-58.431-448.38v.005a32.449 32.449 0 0 1 27.868-36.152l135.1-17.61a75.822 75.822 0 0 0 7.7 46.48 75.767 75.767 0 0 0 33.674 32.948l-82.184 10.7c-6.016.955-10.178 6.529-9.394 12.57.784 6.042 6.238 10.363 12.298 9.75l239.85-31.235c6.016-.955 10.183-6.524 9.399-12.57-.79-6.042-6.237-10.363-12.303-9.746l-74.53 9.706c25.064-18.23 27.3-60.698 32.01-89l115.1-15.001h.005a32.398 32.398 0 0 1 36.152 27.868l58.43 448.38h-.004a32.546 32.546 0 0 1-6.453 23.813 32.548 32.548 0 0 1-21.31 12.434zm-418.98-284.85 344.12-44.826c6.016-.955 10.183-6.529 9.393-12.575-.789-6.041-6.247-10.358-12.308-9.74l-344.12 44.82c-6.03.95-10.208 6.53-9.418 12.58.789 6.057 6.262 10.375 12.334 9.741zm9.509 72.991 344.12-44.826c6.021-.955 10.188-6.529 9.399-12.575-.79-6.041-6.248-10.363-12.308-9.74l-344.12 44.82c-6.052.926-10.254 6.514-9.464 12.586.794 6.071 6.292 10.394 12.379 9.735zm120.38 110.09-104.28 13.575v.005c-5.976.995-10.092 6.549-9.308 12.555.779 6.011 6.177 10.323 12.213 9.76l104.28-13.575v-.005c5.976-.995 10.092-6.548 9.308-12.555-.779-6.01-6.177-10.323-12.213-9.76zm230.33-104.24-344.12 44.826c-6.021.96-10.188 6.534-9.399 12.575.79 6.046 6.248 10.363 12.313 9.745l344.14-44.82v-.006c6.016-.955 10.183-6.528 9.394-12.575-.79-6.04-6.247-10.363-12.308-9.74zm-209.84-280.19-3.111 19.365a8.124 8.124 0 0 0 6.765 9.077 8.115 8.115 0 0 0 9.263-6.504l3.875-24.13zm-2.287-93.628-7.644 47.912c-.83 6.066 3.342 11.675 9.383 12.64 6.041.96 11.746-3.08 12.846-9.097l7.645-47.9c1.673-8.882 10.112-14.813 19.033-13.379 8.92 1.438 15.078 9.715 13.88 18.672l-17.706 110.29a30.65 30.65 0 0 1-19.38 23.491 30.637 30.637 0 0 1-41.111-33.212l16.605-103.4c.914-6.106-3.257-11.806-9.353-12.78-6.092-.976-11.836 3.135-12.877 9.217l-16.606 103.4c-8.986 69.483 91.451 86.004 104.95 16.842l17.712-110.28c8.871-50.044-70.15-62.744-77.38-12.41zm26.476 11.283-6.98 42.931c-.84 6.056 3.311 11.68 9.348 12.66 6.04.975 11.756-3.046 12.872-9.057l6.98-42.93c.84-6.062-3.312-11.686-9.348-12.666-6.04-.98-11.756 3.046-12.87 9.062z"/></svg>