<svg xmlns="http://www.w3.org/2000/svg" xml:space="preserve" viewBox="0 0 500 500"><path d="M99.708 204.979H56.175c-13.357 0-24.24 10.883-24.24 24.24v96.963c0 13.357 10.884 24.239 24.24 24.239h43.533c9.399 0 16.82-7.42 16.82-16.82V221.307c-.496-8.904-7.916-16.324-16.82-16.324zm300.769 0c-9.4 0-16.82 7.42-16.82 16.818V333.6c0 9.399 7.42 16.818 16.82 16.818h11.262c-.921 16.845-3.353 36.065-8.789 54.91-8.714 30.34-59.436 37.265-93.99 38.442v-5.792c0-4.453-3.463-7.915-7.915-7.915H251.08c-4.452 0-7.915 3.463-7.915 7.915v19.788c0 4.452 3.463 7.915 7.915 7.915h49.965c4.452 0 7.914-3.463 7.914-7.915v-3.223c37.311-1.386 93.366-9.689 104.378-46.246 5.897-20.088 8.563-40.303 9.567-57.878h21.105c13.357 0 24.239-10.883 24.239-24.24v-97.456c0-13.357-10.882-23.745-24.239-23.745zm-150.39-170.67c-99.428 0-180.065 80.636-180.065 180.066h27.703c0-84.098 68.268-152.362 152.361-152.362 84.098 0 152.362 68.268 152.362 152.362h27.703c0-99.429-80.635-180.065-180.066-180.065zM42.821 241.624a32.65 32.65 0 0 0-20.758 9.48 32.65 32.65 0 0 0 0 46.172 32.65 32.65 0 0 0 46.172 0 32.65 32.65 0 0 0 0-46.172 32.65 32.65 0 0 0-25.414-9.48zm414.713.069a32.648 32.648 0 0 0-10.186.762 32.648 32.648 0 0 0-24.271 39.278 32.648 32.648 0 0 0 39.277 24.271 32.648 32.648 0 0 0 24.272-39.277 32.648 32.648 0 0 0-29.092-25.034zM165.497 178.76c-7.42 0-13.852 6.431-13.852 13.852v105.866c0 7.42 6.431 13.852 13.852 13.852h27.208l-8.904 33.144c-.495 2.473 2.474 4.947 4.947 3.462l61.341-36.606h84.592c7.42 0 13.852-5.936 13.358-13.356V192.616c0-7.42-6.432-13.852-13.852-13.852zm42.048 56.395c5.936 0 10.388 4.947 10.388 10.389 0 5.441-4.452 10.388-10.388 10.388-5.442 0-10.389-4.947-10.389-10.388 0-5.442 4.453-10.389 10.389-10.389zm42.543 0c5.937 0 10.389 4.947 10.389 10.389 0 5.441-4.453 10.388-10.389 10.388-5.441 0-10.388-4.947-10.388-10.388 0-5.442 4.452-10.389 10.388-10.389zm42.544 0c5.936 0 10.388 4.947 10.388 10.389 0 5.441-4.452 10.388-10.388 10.388-5.442 0-10.389-4.947-10.389-10.388 0-5.442 4.453-10.389 10.389-10.389z"/></svg>