<svg xmlns="http://www.w3.org/2000/svg" xml:space="preserve" viewBox="0 0 500 500"><path d="M470.495 470.497a15.303 15.303 0 0 1-11.248 5.387 15.604 15.604 0 0 1-10.924-5.711L346.306 362.04l15.732-15.732L470.17 448.326a15.65 15.65 0 0 1 5.712 10.924 16.288 16.288 0 0 1-5.388 11.248zM426.59 282.601a7.774 7.774 0 0 1 0 10.959l-7.599 7.588a7.761 7.761 0 0 1-10.96 0l-86.339-86.351a7.738 7.738 0 0 1 0-10.948l7.588-7.6a7.761 7.761 0 0 1 10.948 0zM304.493 404.689a7.75 7.75 0 0 1 0 10.96l-7.588 7.587a7.923 7.923 0 0 1-10.96 0l-86.339-86.363a7.738 7.738 0 0 1 0-10.947l7.588-7.6a7.761 7.761 0 0 1 10.948 0zm-69.54-85.92 87.165-87.166 69.128 69.128-87.166 87.165zM107.024 449.673a11.48 11.48 0 0 1 11.41-10.866h120.837a11.492 11.492 0 0 1 11.422 10.866zm155.642 11.585a18.327 18.327 0 0 1 17.91 14.631H77.149a18.316 18.316 0 0 1 17.91-14.631zm-84.846-107.63H86.222a5.793 5.793 0 0 0 0 11.585h91.598a5.793 5.793 0 0 0 0-11.585zm-91.598-52.662h106.662a5.793 5.793 0 0 0 0-11.585H86.222a5.793 5.793 0 0 0 0 11.585zm0-64.248h185.28a5.793 5.793 0 0 0 0-11.585H86.221a5.793 5.793 0 0 0 0 11.585zm0-64.26h185.28a5.793 5.793 0 0 0 0-11.584H86.221a5.793 5.793 0 0 0 0 11.585zm0-64.247h185.28a5.793 5.793 0 0 0 0-11.585H86.221a5.793 5.793 0 0 0 0 11.585zm230.03 367.677h-24.096a29.819 29.819 0 0 0-29.494-26.216h-.313a23.169 23.169 0 0 0-23.076-22.439H118.437a23.169 23.169 0 0 0-23.065 22.451h-.313a29.807 29.807 0 0 0-29.494 26.204H41.47a17.377 17.377 0 0 1-17.377-17.377V41.467A17.377 17.377 0 0 1 41.469 24.09H316.25a17.377 17.377 0 0 1 17.377 17.377v141.04a19.184 19.184 0 0 0-12.534 5.55l-7.588 7.6a19.311 19.311 0 0 0 0 27.328l.418.428-87.104 87.15-.429-.417a19.335 19.335 0 0 0-27.328 0l-7.588 7.6a19.311 19.311 0 0 0 0 27.329l86.316 86.35a19.323 19.323 0 0 0 27.34 0l7.588-7.587a19.369 19.369 0 0 0 0-27.34l-.418-.417 21.362-21.362v83.791a17.377 17.377 0 0 1-17.41 17.377zm161.871-35.982L370.238 338.118l29.193-29.193.417.417a19.358 19.358 0 0 0 27.34 0l7.599-7.588a19.393 19.393 0 0 0 0-27.34l-86.329-86.35a19.902 19.902 0 0 0-3.208-2.572V41.474a28.961 28.961 0 0 0-28.96-28.961H41.47a28.961 28.961 0 0 0-28.961 28.96V458.52a28.961 28.961 0 0 0 28.96 28.96h274.782a28.961 28.961 0 0 0 28.961-28.96v-80.744l94.68 100.357a27.05 27.05 0 0 0 19.196 9.349h.335a27.085 27.085 0 0 0 18.698-47.565z"/></svg>