<svg xmlns="http://www.w3.org/2000/svg" viewBox="0 0 24 24"><path d="M11.713 3.831a9.584 9.584 0 0 1 9.508 10.8 3.927 3.927 0 0 0-1.639-.615 7.893 7.893 0 1 0-4.199 6.39 3.868 3.868 0 0 0-.285 1.468v.28l.01.191.006.034a9.584 9.584 0 1 1-3.401-18.547zm7.333 11.276a2.819 2.819 0 0 1 .186 5.631l-.186.007a1.128 1.128 0 0 0-.954.523l-.023.04h2.95a.846.846 0 0 1 .839.732l.007.114a.846.846 0 0 1-.731.838l-.115.007H17.07a.846.846 0 0 1-.839-.73l-.007-.116v-.278a2.82 2.82 0 0 1 2.634-2.814l.185-.006a1.128 1.128 0 0 0 .133-2.248l-.131-.008h-.284a.846.846 0 0 0-.838.731l-.007.115a.846.846 0 1 1-1.692 0 2.537 2.537 0 0 1 2.364-2.53l.173-.008zm-7.333-7.89a.846.846 0 0 1 .838.73l.008.115v5.074a.846.846 0 0 1-1.684.115l-.008-.115V8.062a.846.846 0 0 1 .846-.845zm8.076-3.247.09.07 1.276 1.112a.846.846 0 0 1-1.02 1.344l-.092-.07-1.274-1.112a.846.846 0 0 1 1.02-1.344zM14.25 1a.846.846 0 0 1 .115 1.684l-.115.008H9.176a.846.846 0 0 1-.115-1.684L9.176 1z"/></svg>