<svg xmlns="http://www.w3.org/2000/svg" viewBox="0 0 24 24"><path d="M19.609 15.109a2.819 2.819 0 0 1 2.811 2.633l.007.185v2.26a2.819 2.819 0 0 1-5.631.186l-.006-.185v-2.261a2.819 2.819 0 0 1 2.819-2.818zM11.152 3.831a9.584 9.584 0 0 1 9.558 10.308 3.883 3.883 0 0 0-1.688-.115 7.893 7.893 0 1 0-6.175 7.101v1.026l.012.21v.486a9.584 9.584 0 1 1-1.707-19.016zm4.506 12.011.007.113v6.198a.846.846 0 0 1-1.684.114l-.008-.114V17.13l-.577.195a.846.846 0 0 1-1.027-.426l-.044-.106a.846.846 0 0 1 .426-1.028l.106-.044 1.694-.568a.846.846 0 0 1 1.107.688zm3.95.958a1.128 1.128 0 0 0-1.119.996l-.008.13v2.262a1.128 1.128 0 0 0 2.247.13l.008-.13v-2.261a1.128 1.128 0 0 0-1.128-1.127zm-8.456-9.584a.846.846 0 0 1 .838.73l.008.116v5.074a.846.846 0 0 1-1.684.115l-.007-.115V8.062a.846.846 0 0 1 .845-.846zm8.076-3.246.09.07 1.277 1.112a.846.846 0 0 1-1.021 1.344l-.091-.07-1.275-1.112a.846.846 0 0 1 1.02-1.344zM13.689 1a.846.846 0 0 1 .115 1.683l-.115.008H8.615A.846.846 0 0 1 8.5 1.008L8.615 1z"/></svg>